<svg width="1684" height="41" viewBox="0 0 1684 41" fill="none" xmlns="http://www.w3.org/2000/svg">
<g clip-path="url(#clip0_25_209)">
<path d="M1248 -42H1684V49H1248V-42Z" fill="url(#paint0_linear_25_209)"/>
<path d="M827 -42H1278L1262 49H827V-42Z" fill="url(#paint1_linear_25_209)"/>
<path d="M416 -42H857L842 49H416V-42Z" fill="url(#paint2_linear_25_209)"/>
<path d="M0 -42H434L419 49H0V-42Z" fill="url(#paint3_linear_25_209)"/>
<g style="mix-blend-mode:soft-light" opacity="0.3">
<path d="M20 -25H44.5L29.5 65.5H5L20 -25Z" fill="white"/>
<path d="M106 -25H130.5L115.5 65.5H91L106 -25Z" fill="white"/>
<path d="M192 -25H216.5L201.5 65.5H177L192 -25Z" fill="white"/>
<path d="M278 -25H302.5L287.5 65.5H263L278 -25Z" fill="white"/>
<path d="M364 -25H388.5L373.5 65.5H349L364 -25Z" fill="white"/>
<path d="M450 -25H474.5L459.5 65.5H435L450 -25Z" fill="white"/>
<path d="M536 -25H560.5L545.5 65.5H521L536 -25Z" fill="white"/>
<path d="M622 -25H646.5L631.5 65.5H607L622 -25Z" fill="white"/>
<path d="M708 -25H732.5L717.5 65.5H693L708 -25Z" fill="white"/>
<path d="M794 -25H818.5L803.5 65.5H779L794 -25Z" fill="white"/>
<path d="M880 -25H904.5L889.5 65.5H865L880 -25Z" fill="white"/>
<path d="M966 -25H990.5L975.5 65.5H951L966 -25Z" fill="white"/>
<path d="M1052 -25H1076.5L1061.5 65.5H1037L1052 -25Z" fill="white"/>
<path d="M1138 -25H1162.5L1147.5 65.5H1123L1138 -25Z" fill="white"/>
<path d="M1224 -25H1248.5L1233.5 65.5H1209L1224 -25Z" fill="white"/>
</g>
<g style="mix-blend-mode:overlay" opacity="0.3">
<path d="M1289.52 7.54594L1293.37 11.0173L1297.87 8.42337L1295.76 13.1628L1299.61 16.6342L1294.45 16.0919L1292.34 20.8313L1291.26 15.7567L1286.1 15.2144L1290.6 12.6205L1289.52 7.54594Z" fill="black"/>
<path d="M1564.77 7.07361L1560.94 9.56174L1562.13 13.9745L1558.58 11.0995L1554.74 13.5876L1556.38 9.32265L1552.83 6.44766L1557.39 6.68675L1559.03 2.42178L1560.21 6.83452L1564.77 7.07361Z" fill="black"/>
<path d="M1354.21 31.4299L1353.23 36.0191L1357.3 38.3649L1352.63 38.8553L1351.65 43.4445L1349.75 39.1584L1345.08 39.6488L1348.57 36.5095L1346.66 32.2234L1350.72 34.5693L1354.21 31.4299Z" fill="black"/>
<path d="M1627.18 24.9422L1626.27 29.3642L1630.2 31.5941L1625.71 32.0972L1624.8 36.5192L1622.94 32.4081L1618.45 32.9111L1621.78 29.8673L1619.92 25.7562L1623.85 27.9861L1627.18 24.9422Z" fill="black"/>
<path d="M1405.47 -1.36376L1408.53 3.33556L1413.94 1.88532L1410.41 6.2399L1413.46 10.9392L1408.23 8.93118L1404.71 13.2858L1405 7.69014L1399.77 5.6821L1405.18 4.23186L1405.47 -1.36376Z" fill="black"/>
<path d="M1665.5 -4L1667.41 1.87336L1673.58 1.87336L1668.59 5.50329L1670.5 11.3766L1665.5 7.74671L1660.5 11.3766L1662.41 5.50329L1657.42 1.87336L1663.59 1.87336L1665.5 -4Z" fill="black"/>
<path d="M1459.22 30.7921L1458.54 38.3569L1465.27 41.112L1458.13 43.0322L1457.45 50.597L1453.71 44.2189L1446.57 46.1391L1451.4 40.2771L1447.66 33.899L1454.39 36.6541L1459.22 30.7921Z" fill="black"/>
<path d="M1455.29 6.28754L1452.39 11.9749L1456.9 16.4884L1450.6 15.4899L1447.7 21.1773L1446.7 14.8728L1440.4 13.8742L1446.09 10.9764L1445.09 4.67187L1449.6 9.1854L1455.29 6.28754Z" fill="black"/>
<path d="M1500.63 5.12965L1504.44 10.9906L1511.19 9.18186L1506.79 14.6128L1510.6 20.4738L1504.07 17.9694L1499.68 23.4003L1500.04 16.4216L1493.52 13.9172L1500.27 12.1084L1500.63 5.12965Z" fill="black"/>
<path d="M1531 28L1533.25 34.9098H1540.51L1534.63 39.1803L1536.88 46.0902L1531 41.8197L1525.12 46.0902L1527.37 39.1803L1521.49 34.9098H1528.75L1531 28Z" fill="black"/>
<path d="M1391 28L1393.25 34.9098H1400.51L1394.63 39.1803L1396.88 46.0902L1391 41.8197L1385.12 46.0902L1387.37 39.1803L1381.49 34.9098H1388.75L1391 28Z" fill="black"/>
<path d="M1661.5 27L1663.86 34.2553H1671.49L1665.31 38.7394L1667.67 45.9947L1661.5 41.5106L1655.33 45.9947L1657.69 38.7394L1651.51 34.2553H1659.14L1661.5 27Z" fill="black"/>
<path d="M1336.65 -7.60477L1340.89 -1.26348L1348.23 -3.33723L1343.51 2.65565L1347.75 8.99694L1340.59 6.35946L1335.87 12.3523L1336.17 4.72941L1329.01 2.09193L1336.35 0.018171L1336.65 -7.60477Z" fill="black"/>
<path d="M1608.01 -7.70077L1612.02 -1.21061L1619.43 -3.01816L1614.5 2.80052L1618.51 9.29068L1611.45 6.39667L1606.52 12.2154L1607.09 4.60807L1600.03 1.71406L1607.44 -0.0934868L1608.01 -7.70077Z" fill="black"/>
<path d="M1306.5 31L1308.86 38.2553H1316.49L1310.31 42.7394L1312.67 49.9947L1306.5 45.5106L1300.33 49.9947L1302.69 42.7394L1296.51 38.2553H1304.14L1306.5 31Z" fill="black"/>
<path d="M1577.5 31L1579.86 38.2553H1587.49L1581.31 42.7394L1583.67 49.9947L1577.5 45.5106L1571.33 49.9947L1573.69 42.7394L1567.51 38.2553H1575.14L1577.5 31Z" fill="black"/>
</g>
<g style="mix-blend-mode:soft-light" opacity="0.7">
<path d="M1307.52 -5.99508L1311.37 -2.52369L1315.87 -5.11764L1313.76 -0.378251L1317.61 3.09314L1312.45 2.55086L1310.34 7.29025L1309.26 2.2157L1304.1 1.67342L1308.6 -0.920535L1307.52 -5.99508Z" fill="white"/>
<path d="M1274.18 28.0293L1278.04 31.5007L1282.53 28.9068L1280.42 33.6462L1284.28 37.1176L1279.12 36.5753L1277.01 41.3147L1275.93 36.2401L1270.77 35.6978L1275.26 33.1039L1274.18 28.0293Z" fill="white"/>
<path d="M1583.57 -2.66858L1579.74 -0.180446L1580.92 4.23229L1577.37 1.3573L1573.54 3.84543L1575.18 -0.419537L1571.63 -3.29453L1576.19 -3.05543L1577.83 -7.3204L1579.01 -2.90767L1583.57 -2.66858Z" fill="white"/>
<path d="M1373.21 7.88892L1372.23 12.4781L1376.3 14.8239L1371.63 15.3143L1370.65 19.9035L1368.75 15.6174L1364.08 16.1078L1367.57 12.9685L1365.66 8.68243L1369.72 11.0283L1373.21 7.88892Z" fill="white"/>
<path d="M1645.18 11.4012L1644.27 15.8232L1648.2 18.0531L1643.71 18.5562L1642.8 22.9781L1640.94 18.867L1636.45 19.3701L1639.78 16.3263L1637.92 12.2152L1641.85 14.4451L1645.18 11.4012Z" fill="white"/>
<path d="M1423.47 -14.9048L1426.53 -10.2055L1431.94 -11.6557L1428.41 -7.30112L1431.46 -2.6018L1426.23 -4.60984L1422.71 -0.255259L1423 -5.85088L1417.77 -7.85892L1423.18 -9.30916L1423.47 -14.9048Z" fill="white"/>
<path d="M1487.48 17.2434L1486.91 24.8508L1493.97 27.7436L1486.56 29.5524L1485.99 37.1598L1481.98 30.6703L1474.57 32.479L1479.5 26.6595L1475.49 20.17L1482.55 23.0629L1487.48 17.2434Z" fill="white"/>
<path d="M1473.29 -7.25348L1470.39 -1.5661L1474.9 2.94743L1468.6 1.94889L1465.7 7.63627L1464.7 1.33176L1458.4 0.333228L1464.09 -2.56464L1463.09 -8.86914L1467.6 -4.35561L1473.29 -7.25348Z" fill="white"/>
<path d="M1518.63 -8.41137L1522.44 -2.55043L1529.19 -4.35915L1524.79 1.07182L1528.6 6.93275L1522.07 4.42835L1517.68 9.85933L1518.04 2.88054L1511.52 0.376138L1518.27 -1.43258L1518.63 -8.41137Z" fill="white"/>
<path d="M1549 14.459L1551.25 21.3688H1558.51L1552.63 25.6393L1554.88 32.5492L1549 28.2786L1543.12 32.5492L1545.37 25.6393L1539.49 21.3688H1546.75L1549 14.459Z" fill="white"/>
<path d="M1409 14.459L1411.25 21.3688H1418.51L1412.63 25.6393L1414.88 32.5492L1409 28.2786L1403.12 32.5492L1405.37 25.6393L1399.49 21.3688H1406.75L1409 14.459Z" fill="white"/>
<path d="M1679.5 13.459L1681.86 20.7143H1689.49L1683.31 25.1983L1685.67 32.4537L1679.5 27.9696L1673.33 32.4537L1675.69 25.1983L1669.51 20.7143H1677.14L1679.5 13.459Z" fill="white"/>
<path d="M1327.5 16.459L1329.86 23.7143H1337.49L1331.31 28.1983L1333.67 35.4537L1327.5 30.9696L1321.33 35.4537L1323.69 28.1983L1317.51 23.7143H1325.14L1327.5 16.459Z" fill="white"/>
<path d="M1595.5 10.459L1597.86 17.7143H1605.49L1599.31 22.1983L1601.67 29.4537L1595.5 24.9696L1589.33 29.4537L1591.69 22.1983L1585.51 17.7143H1593.14L1595.5 10.459Z" fill="white"/>
</g>
<g style="mix-blend-mode:overlay" opacity="0.6">
<path d="M-31 -10H1707V46H-31V-10Z" fill="url(#paint4_linear_25_209)"/>
</g>
<path fill-rule="evenodd" clip-rule="evenodd" d="M1537 11C1537 9.34315 1538.34 8 1540 8L1597 8.00001L1654 8.00001C1655.66 8.00001 1657 9.34316 1657 11C1657 12.6569 1655.66 14 1654 14L1597 14L1540 14C1538.34 14 1537 12.6569 1537 11Z" fill="white" fill-opacity="0.8"/>
</g>
<defs>
<linearGradient id="paint0_linear_25_209" x1="1263" y1="-42" x2="1684" y2="49" gradientUnits="userSpaceOnUse">
<stop stop-color="#4F719D"/>
<stop offset="1" stop-color="#BFDBFF"/>
</linearGradient>
<linearGradient id="paint1_linear_25_209" x1="832.113" y1="-42" x2="1261.78" y2="52.9793" gradientUnits="userSpaceOnUse">
<stop stop-color="#A24F60"/>
<stop offset="1" stop-color="#E2BB18"/>
</linearGradient>
<linearGradient id="paint2_linear_25_209" x1="416" y1="-42" x2="843.17" y2="51.823" gradientUnits="userSpaceOnUse">
<stop stop-color="#3671CD"/>
<stop offset="1" stop-color="#5CDCF7"/>
</linearGradient>
<linearGradient id="paint3_linear_25_209" x1="14.4346" y1="-42" x2="439.138" y2="42.5254" gradientUnits="userSpaceOnUse">
<stop stop-color="#684098"/>
<stop offset="1" stop-color="#8263B3"/>
</linearGradient>
<linearGradient id="paint4_linear_25_209" x1="838" y1="-10" x2="838" y2="46" gradientUnits="userSpaceOnUse">
<stop stop-color="white"/>
<stop offset="1"/>
</linearGradient>
<clipPath id="clip0_25_209">
<rect width="1684" height="41" fill="white"/>
</clipPath>
</defs>
</svg>
