<svg width="1700" height="1315" viewBox="0 0 1700 1315" fill="none" xmlns="http://www.w3.org/2000/svg">
<g clip-path="url(#clip0_4_744)">
<circle cx="641.128" cy="493.711" r="28.205" transform="rotate(-34.8477 641.128 493.711)" stroke="url(#paint0_linear_4_744)" stroke-width="15"/>
<circle cx="373.704" cy="1086.7" r="28.205" transform="rotate(-34.8477 373.704 1086.7)" stroke="url(#paint1_linear_4_744)" stroke-width="15"/>
<circle cx="586.044" cy="839.044" r="21.5824" transform="rotate(-34.8477 586.044 839.044)" fill="url(#paint2_linear_4_744)"/>
<circle opacity="0.5" cx="475.14" cy="618.14" r="24.5243" transform="rotate(-34.8477 475.14 618.14)" fill="url(#paint3_linear_4_744)"/>
<circle cx="930.923" cy="398.303" r="17.0864" transform="rotate(-34.8477 930.923 398.303)" fill="url(#paint4_linear_4_744)"/>
</g>
<g opacity="0.5" filter="url(#filter0_f_4_744)">
<circle cx="528" cy="682" r="274" fill="#9A6CFF"/>
</g>
<g opacity="0.7" filter="url(#filter1_f_4_744)">
<circle cx="1054" cy="362" r="138" fill="#EC6E94"/>
</g>
<circle cx="1192" cy="839" r="472.5" stroke="url(#paint5_linear_4_744)" stroke-width="7"/>
<g clip-path="url(#clip1_4_744)">
<g filter="url(#filter2_df_4_744)">
<circle cx="1635.05" cy="740.051" r="53.1202" transform="rotate(-103.497 1635.05 740.051)" fill="url(#paint6_linear_4_744)"/>
</g>
<g filter="url(#filter3_f_4_744)">
<circle cx="804" cy="1037" r="122" fill="url(#paint7_linear_4_744)"/>
</g>
<g filter="url(#filter4_f_4_744)">
<circle cx="1538" cy="1044" r="122" transform="rotate(-21.552 1538 1044)" fill="url(#paint8_linear_4_744)"/>
</g>
<g filter="url(#filter5_d_4_744)">
<circle cx="1202" cy="839" r="398" fill="url(#paint9_linear_4_744)"/>
</g>
<g filter="url(#filter6_df_4_744)">
<circle cx="1128.05" cy="444.051" r="53.1202" transform="rotate(-103.497 1128.05 444.051)" fill="url(#paint10_linear_4_744)"/>
</g>
<g filter="url(#filter7_df_4_744)">
<circle cx="1144.05" cy="1232.05" r="53.1202" transform="rotate(-56.0044 1144.05 1232.05)" fill="url(#paint11_linear_4_744)"/>
</g>
</g>
<g filter="url(#filter8_b_4_744)">
<path d="M797.857 402.388L967.232 343.326L1078.89 397.245L1174.33 670.948C1177.58 680.279 1172.65 690.481 1163.32 693.735L928.057 775.773C918.726 779.027 908.524 774.1 905.27 764.769L786.853 425.175C783.599 415.844 788.526 405.642 797.857 402.388Z" fill="#D9D9D9" fill-opacity="0.2"/>
<path d="M967.232 343.326L797.857 402.388C788.526 405.642 783.599 415.844 786.853 425.175L905.27 764.769C908.524 774.1 918.726 779.027 928.057 775.773L1163.32 693.735C1172.65 690.481 1177.58 680.279 1174.33 670.948L1078.89 397.245M967.232 343.326L1078.89 397.245M967.232 343.326L990.208 409.218C993.462 418.549 1003.66 423.476 1012.99 420.222L1078.89 397.245" stroke="url(#paint12_linear_4_744)" stroke-width="3.57859"/>
</g>
<path fill-rule="evenodd" clip-rule="evenodd" d="M872.079 414.169L822.238 431.549C818.972 432.687 817.247 436.258 818.386 439.524L830.548 474.4L841.432 462.593C845.875 457.774 852.466 455.548 858.921 456.689L868.962 458.462C874.283 459.402 879.728 457.686 883.547 453.864L890.224 447.185L880.054 418.02C878.915 414.754 875.344 413.03 872.079 414.169ZM840.184 502.036L831.55 477.273L843.406 464.412C847.228 460.265 852.9 458.35 858.454 459.332L868.495 461.105C874.679 462.198 881.006 460.203 885.446 455.762L891.205 449.999L901.852 480.533C902.991 483.798 901.267 487.369 898.001 488.508L848.16 505.888C844.894 507.026 841.323 505.302 840.184 502.036ZM904.386 479.649L893.312 447.891L893.393 447.81L893.226 447.643L882.588 417.136C880.961 412.471 875.86 410.008 871.195 411.635L821.354 429.014C816.688 430.641 814.225 435.742 815.852 440.408L837.65 502.92C839.277 507.586 844.378 510.049 849.044 508.422L898.885 491.042C903.55 489.415 906.013 484.314 904.386 479.649ZM924.37 523.371L853.41 548.115L852.526 545.581L923.486 520.837L924.37 523.371ZM1092.6 504.503L865.782 583.595L864.898 581.061L1091.72 501.968L1092.6 504.503ZM871.968 601.335L1098.79 522.243L1097.9 519.708L871.084 598.801L871.968 601.335ZM1104.97 539.983L878.154 619.075L877.27 616.541L1104.09 537.448L1104.97 539.983ZM884.34 636.815L1111.16 557.723L1110.27 555.188L883.456 634.281L884.34 636.815ZM1117.34 575.463L890.526 654.555L889.642 652.021L1116.46 572.928L1117.34 575.463ZM896.712 672.295L1123.53 593.203L1122.65 590.668L895.828 669.761L896.712 672.295ZM909.084 707.775L980.044 683.031L979.16 680.497L908.2 705.241L909.084 707.775ZM986.23 700.771L915.27 725.515L914.386 722.981L985.346 698.237L986.23 700.771ZM921.455 743.255L992.416 718.511L991.532 715.977L920.572 740.721L921.455 743.255Z" fill="url(#paint13_linear_4_744)" fill-opacity="0.7"/>
<g filter="url(#filter9_b_4_744)">
<path d="M1122.16 805.235L1289.52 828.151L1360.12 921.153L1323.09 1191.6C1321.83 1200.82 1313.33 1207.27 1304.11 1206.01L1071.64 1174.18C1062.42 1172.91 1055.97 1164.42 1057.23 1155.2L1103.18 819.643C1104.44 810.423 1112.94 803.972 1122.16 805.235Z" fill="#D9D9D9" fill-opacity="0.2"/>
<path d="M1289.52 828.151L1122.16 805.235C1112.94 803.972 1104.44 810.423 1103.18 819.643L1057.23 1155.2C1055.97 1164.42 1062.42 1172.91 1071.64 1174.18L1304.11 1206.01C1313.33 1207.27 1321.83 1200.82 1323.09 1191.6L1360.12 921.153M1289.52 828.151L1360.12 921.153M1289.52 828.151L1280.61 893.258C1279.34 902.478 1285.79 910.976 1295.01 912.238L1360.12 921.153" stroke="url(#paint14_linear_4_744)" stroke-width="3.37"/>
</g>
<path fill-rule="evenodd" clip-rule="evenodd" d="M1179.39 846.872L1130.14 840.129C1126.91 839.687 1123.94 841.945 1123.5 845.172L1118.78 879.633L1132.96 874.385C1138.75 872.242 1145.23 873.195 1150.16 876.914L1157.82 882.697C1161.88 885.762 1167.19 886.652 1172.02 885.08L1180.48 882.333L1184.43 853.515C1184.87 850.288 1182.61 847.314 1179.39 846.872ZM1115.04 906.941L1118.39 882.472L1133.84 876.755C1138.82 874.912 1144.4 875.732 1148.63 878.931L1156.3 884.715C1161.02 888.277 1167.18 889.311 1172.81 887.484L1180.1 885.114L1175.97 915.284C1175.53 918.511 1172.56 920.769 1169.33 920.327L1120.08 913.584C1116.85 913.142 1114.6 910.167 1115.04 906.941ZM1178.48 915.627L1182.77 884.247L1182.87 884.214L1182.81 884.001L1186.93 853.858C1187.56 849.248 1184.34 844.999 1179.73 844.368L1130.48 837.625C1125.87 836.994 1121.62 840.219 1120.99 844.829L1112.53 906.598C1111.9 911.208 1115.13 915.456 1119.74 916.088L1168.99 922.831C1173.6 923.462 1177.84 920.237 1178.48 915.627ZM1176.53 960.855L1106.42 951.255L1106.76 948.75L1176.88 958.351L1176.53 960.855ZM1325.74 1017L1101.62 986.312L1101.96 983.808L1326.08 1014.5L1325.74 1017ZM1099.22 1003.84L1323.34 1034.53L1323.68 1032.03L1099.56 1001.34L1099.22 1003.84ZM1320.94 1052.06L1096.82 1021.37L1097.16 1018.87L1321.28 1049.55L1320.94 1052.06ZM1094.42 1038.9L1318.54 1069.59L1318.88 1067.08L1094.76 1036.4L1094.42 1038.9ZM1316.14 1087.12L1092.02 1056.43L1092.36 1053.92L1316.48 1084.61L1316.14 1087.12ZM1089.62 1073.96L1313.74 1104.64L1314.08 1102.14L1089.96 1071.45L1089.62 1073.96ZM1084.82 1109.01L1154.93 1118.62L1155.28 1116.11L1085.16 1106.51L1084.82 1109.01ZM1152.53 1136.14L1082.42 1126.54L1082.76 1124.04L1152.88 1133.64L1152.53 1136.14ZM1080.02 1144.07L1150.13 1153.67L1150.48 1151.17L1080.36 1141.57L1080.02 1144.07Z" fill="url(#paint15_linear_4_744)" fill-opacity="0.7"/>
<g filter="url(#filter10_f_4_744)">
<g filter="url(#filter11_b_4_744)">
<path d="M350.945 311.364L420.124 292.582L463.118 317.215L493.469 429.007C494.504 432.818 492.253 436.746 488.442 437.781L392.35 463.87C388.539 464.905 384.61 462.654 383.575 458.843L345.917 320.139C344.883 316.328 347.133 312.399 350.945 311.364Z" fill="#D9D9D9" fill-opacity="0.2"/>
<path d="M420.124 292.582L350.945 311.364C347.133 312.399 344.883 316.328 345.917 320.139L383.575 458.843C384.61 462.654 388.539 464.905 392.35 463.87L488.442 437.781C492.253 436.746 494.504 432.818 493.469 429.007L463.118 317.215M420.124 292.582L463.118 317.215M420.124 292.582L427.431 319.495C428.466 323.306 432.394 325.557 436.205 324.522L463.118 317.215" stroke="url(#paint16_linear_4_744)" stroke-width="1.4301"/>
</g>
<path fill-rule="evenodd" clip-rule="evenodd" d="M380.201 318.148L359.844 323.674C358.51 324.037 357.722 325.412 358.084 326.745L361.952 340.99L366.623 336.59C368.529 334.793 371.219 334.092 373.76 334.728L377.713 335.717C379.808 336.241 382.027 335.71 383.657 334.294L386.506 331.819L383.272 319.907C382.91 318.573 381.535 317.785 380.201 318.148ZM365.016 352.278L362.27 342.164L367.358 337.37C368.999 335.825 371.313 335.221 373.5 335.768L377.453 336.757C379.887 337.367 382.466 336.749 384.36 335.104L386.818 332.969L390.204 345.44C390.566 346.774 389.778 348.148 388.444 348.511L368.087 354.038C366.754 354.4 365.379 353.612 365.016 352.278ZM391.239 345.159L387.717 332.187L387.752 332.157L387.69 332.086L384.307 319.626C383.79 317.72 381.825 316.595 379.92 317.112L359.563 322.639C357.657 323.157 356.532 325.121 357.049 327.026L363.981 352.559C364.499 354.465 366.463 355.59 368.368 355.073L388.726 349.546C390.631 349.028 391.756 347.064 391.239 345.159ZM397.976 363.15L368.993 371.019L368.712 369.983L397.695 362.115L397.976 363.15ZM465.569 360.358L372.927 385.51L372.646 384.475L465.288 359.323L465.569 360.358ZM374.895 392.756L467.537 367.603L467.256 366.568L374.614 391.721L374.895 392.756ZM469.504 374.849L376.862 400.001L376.581 398.966L469.223 373.814L469.504 374.849ZM378.829 407.247L471.471 382.095L471.19 381.06L378.548 406.212L378.829 407.247ZM473.438 389.341L380.796 414.493L380.515 413.458L473.157 388.306L473.438 389.341ZM382.764 421.739L475.406 396.586L475.124 395.551L382.483 420.704L382.764 421.739ZM386.698 436.23L415.681 428.361L415.4 427.326L386.417 435.195L386.698 436.23ZM417.648 435.607L388.665 443.476L388.384 442.441L417.367 434.572L417.648 435.607ZM390.632 450.722L419.615 442.853L419.334 441.818L390.351 449.687L390.632 450.722Z" fill="url(#paint17_linear_4_744)" fill-opacity="0.7"/>
</g>
<g filter="url(#filter12_b_4_744)">
<path d="M767.591 597.741L939.052 701.672L972.058 836.277L804.11 1113.35C798.385 1122.8 786.086 1125.81 776.64 1120.09L538.477 975.723C529.031 969.997 526.015 957.698 531.741 948.252L740.121 604.477C745.847 595.031 758.146 592.015 767.591 597.741Z" fill="#D9D9D9" fill-opacity="0.2"/>
<path d="M939.052 701.672L767.591 597.741C758.146 592.015 745.847 595.031 740.121 604.477L531.741 948.252C526.015 957.698 529.031 969.997 538.477 975.723L776.64 1120.09C786.086 1125.81 798.385 1122.8 804.11 1113.35L972.058 836.277M939.052 701.672L972.058 836.277M939.052 701.672L898.62 768.374C892.894 777.82 895.91 790.119 905.356 795.845L972.058 836.277" stroke="url(#paint18_linear_4_744)" stroke-width="4"/>
</g>
<path fill-rule="evenodd" clip-rule="evenodd" d="M810.269 670.092L759.814 639.509C756.508 637.505 752.203 638.56 750.199 641.866L728.799 677.172L746.722 678.148C754.038 678.547 760.647 682.643 764.259 689.018L769.877 698.934C772.855 704.189 778.21 707.659 784.222 708.231L794.731 709.23L812.626 679.707C814.63 676.401 813.575 672.096 810.269 670.092ZM711.841 705.149L727.036 680.081L746.559 681.144C752.854 681.487 758.541 685.012 761.649 690.497L767.267 700.413C770.727 706.52 776.951 710.553 783.938 711.218L793.003 712.08L774.268 742.989C772.264 746.295 767.959 747.35 764.653 745.346L714.199 714.763C710.892 712.759 709.837 708.455 711.841 705.149ZM776.833 744.544L796.32 712.395L796.448 712.407L796.473 712.144L815.192 681.262C818.055 676.539 816.547 670.389 811.824 667.527L761.369 636.943C756.646 634.081 750.497 635.588 747.634 640.311L709.275 703.593C706.413 708.316 707.921 714.466 712.643 717.329L763.098 747.912C767.821 750.775 773.97 749.267 776.833 744.544ZM753.377 792.887L681.543 749.345L683.098 746.779L754.932 790.321L753.377 792.887ZM889.383 924.441L659.772 785.262L661.327 782.696L890.939 921.875L889.383 924.441ZM648.887 803.22L878.498 942.399L880.053 939.834L650.442 800.655L648.887 803.22ZM867.612 960.358L638.001 821.178L639.556 818.613L869.167 957.792L867.612 960.358ZM627.116 839.137L856.727 978.316L858.282 975.751L628.671 836.571L627.116 839.137ZM845.841 996.275L616.23 857.095L617.785 854.53L847.396 993.709L845.841 996.275ZM605.344 875.054L834.956 1014.23L836.511 1011.67L606.9 872.488L605.344 875.054ZM583.573 910.971L655.407 954.513L656.962 951.947L585.128 908.405L583.573 910.971ZM644.521 972.471L572.688 928.929L574.243 926.363L646.077 969.906L644.521 972.471ZM561.802 946.887L633.636 990.43L635.191 987.864L563.357 944.322L561.802 946.887Z" fill="url(#paint19_linear_4_744)" fill-opacity="0.7"/>
<defs>
<filter id="filter0_f_4_744" x="0" y="154" width="1056" height="1056" filterUnits="userSpaceOnUse" color-interpolation-filters="sRGB">
<feFlood flood-opacity="0" result="BackgroundImageFix"/>
<feBlend mode="normal" in="SourceGraphic" in2="BackgroundImageFix" result="shape"/>
<feGaussianBlur stdDeviation="127" result="effect1_foregroundBlur_4_744"/>
</filter>
<filter id="filter1_f_4_744" x="692" y="0" width="724" height="724" filterUnits="userSpaceOnUse" color-interpolation-filters="sRGB">
<feFlood flood-opacity="0" result="BackgroundImageFix"/>
<feBlend mode="normal" in="SourceGraphic" in2="BackgroundImageFix" result="shape"/>
<feGaussianBlur stdDeviation="112" result="effect1_foregroundBlur_4_744"/>
</filter>
<filter id="filter2_df_4_744" x="1547.92" y="652.918" width="174.265" height="174.265" filterUnits="userSpaceOnUse" color-interpolation-filters="sRGB">
<feFlood flood-opacity="0" result="BackgroundImageFix"/>
<feColorMatrix in="SourceAlpha" type="matrix" values="0 0 0 0 0 0 0 0 0 0 0 0 0 0 0 0 0 0 127 0" result="hardAlpha"/>
<feMorphology radius="1" operator="dilate" in="SourceAlpha" result="effect1_dropShadow_4_744"/>
<feOffset dx="-1" dy="-8"/>
<feGaussianBlur stdDeviation="12"/>
<feComposite in2="hardAlpha" operator="out"/>
<feColorMatrix type="matrix" values="0 0 0 0 0 0 0 0 0 0 0 0 0 0 0 0 0 0 0.7 0"/>
<feBlend mode="normal" in2="BackgroundImageFix" result="effect1_dropShadow_4_744"/>
<feBlend mode="normal" in="SourceGraphic" in2="effect1_dropShadow_4_744" result="shape"/>
<feGaussianBlur stdDeviation="17" result="effect2_foregroundBlur_4_744"/>
</filter>
<filter id="filter3_f_4_744" x="638" y="871" width="332" height="332" filterUnits="userSpaceOnUse" color-interpolation-filters="sRGB">
<feFlood flood-opacity="0" result="BackgroundImageFix"/>
<feBlend mode="normal" in="SourceGraphic" in2="BackgroundImageFix" result="shape"/>
<feGaussianBlur stdDeviation="22" result="effect1_foregroundBlur_4_744"/>
</filter>
<filter id="filter4_f_4_744" x="1371.97" y="877.967" width="332.065" height="332.065" filterUnits="userSpaceOnUse" color-interpolation-filters="sRGB">
<feFlood flood-opacity="0" result="BackgroundImageFix"/>
<feBlend mode="normal" in="SourceGraphic" in2="BackgroundImageFix" result="shape"/>
<feGaussianBlur stdDeviation="22" result="effect1_foregroundBlur_4_744"/>
</filter>
<filter id="filter5_d_4_744" x="730" y="365" width="944" height="944" filterUnits="userSpaceOnUse" color-interpolation-filters="sRGB">
<feFlood flood-opacity="0" result="BackgroundImageFix"/>
<feColorMatrix in="SourceAlpha" type="matrix" values="0 0 0 0 0 0 0 0 0 0 0 0 0 0 0 0 0 0 127 0" result="hardAlpha"/>
<feOffset dy="-2"/>
<feGaussianBlur stdDeviation="37"/>
<feComposite in2="hardAlpha" operator="out"/>
<feColorMatrix type="matrix" values="0 0 0 0 0 0 0 0 0 0 0 0 0 0 0 0 0 0 0.25 0"/>
<feBlend mode="normal" in2="BackgroundImageFix" result="effect1_dropShadow_4_744"/>
<feBlend mode="normal" in="SourceGraphic" in2="effect1_dropShadow_4_744" result="shape"/>
</filter>
<filter id="filter6_df_4_744" x="1040.92" y="356.919" width="174.265" height="174.265" filterUnits="userSpaceOnUse" color-interpolation-filters="sRGB">
<feFlood flood-opacity="0" result="BackgroundImageFix"/>
<feColorMatrix in="SourceAlpha" type="matrix" values="0 0 0 0 0 0 0 0 0 0 0 0 0 0 0 0 0 0 127 0" result="hardAlpha"/>
<feMorphology radius="1" operator="dilate" in="SourceAlpha" result="effect1_dropShadow_4_744"/>
<feOffset dx="-1" dy="-8"/>
<feGaussianBlur stdDeviation="12"/>
<feComposite in2="hardAlpha" operator="out"/>
<feColorMatrix type="matrix" values="0 0 0 0 0 0 0 0 0 0 0 0 0 0 0 0 0 0 0.7 0"/>
<feBlend mode="normal" in2="BackgroundImageFix" result="effect1_dropShadow_4_744"/>
<feBlend mode="normal" in="SourceGraphic" in2="effect1_dropShadow_4_744" result="shape"/>
<feGaussianBlur stdDeviation="17" result="effect2_foregroundBlur_4_744"/>
</filter>
<filter id="filter7_df_4_744" x="1056.93" y="1144.93" width="174.251" height="174.251" filterUnits="userSpaceOnUse" color-interpolation-filters="sRGB">
<feFlood flood-opacity="0" result="BackgroundImageFix"/>
<feColorMatrix in="SourceAlpha" type="matrix" values="0 0 0 0 0 0 0 0 0 0 0 0 0 0 0 0 0 0 127 0" result="hardAlpha"/>
<feMorphology radius="1" operator="dilate" in="SourceAlpha" result="effect1_dropShadow_4_744"/>
<feOffset dx="-1" dy="-8"/>
<feGaussianBlur stdDeviation="12"/>
<feComposite in2="hardAlpha" operator="out"/>
<feColorMatrix type="matrix" values="0 0 0 0 0 0 0 0 0 0 0 0 0 0 0 0 0 0 0.7 0"/>
<feBlend mode="normal" in2="BackgroundImageFix" result="effect1_dropShadow_4_744"/>
<feBlend mode="normal" in="SourceGraphic" in2="effect1_dropShadow_4_744" result="shape"/>
<feGaussianBlur stdDeviation="17" result="effect2_foregroundBlur_4_744"/>
</filter>
<filter id="filter8_b_4_744" x="757.221" y="314.553" width="446.738" height="490.852" filterUnits="userSpaceOnUse" color-interpolation-filters="sRGB">
<feFlood flood-opacity="0" result="BackgroundImageFix"/>
<feGaussianBlur in="BackgroundImageFix" stdDeviation="13.4197"/>
<feComposite in2="SourceAlpha" operator="in" result="effect1_backgroundBlur_4_744"/>
<feBlend mode="normal" in="SourceGraphic" in2="effect1_backgroundBlur_4_744" result="shape"/>
</filter>
<filter id="filter9_b_4_744" x="1030.12" y="778.117" width="357.043" height="455.009" filterUnits="userSpaceOnUse" color-interpolation-filters="sRGB">
<feFlood flood-opacity="0" result="BackgroundImageFix"/>
<feGaussianBlur in="BackgroundImageFix" stdDeviation="12.6375"/>
<feComposite in2="SourceAlpha" operator="in" result="effect1_backgroundBlur_4_744"/>
<feBlend mode="normal" in="SourceGraphic" in2="effect1_backgroundBlur_4_744" result="shape"/>
</filter>
<filter id="filter10_f_4_744" x="329.605" y="269.01" width="180.004" height="211.172" filterUnits="userSpaceOnUse" color-interpolation-filters="sRGB">
<feFlood flood-opacity="0" result="BackgroundImageFix"/>
<feBlend mode="normal" in="SourceGraphic" in2="BackgroundImageFix" result="shape"/>
<feGaussianBlur stdDeviation="7" result="effect1_foregroundBlur_4_744"/>
</filter>
<filter id="filter11_b_4_744" x="334.225" y="281.089" width="170.937" height="194.474" filterUnits="userSpaceOnUse" color-interpolation-filters="sRGB">
<feFlood flood-opacity="0" result="BackgroundImageFix"/>
<feGaussianBlur in="BackgroundImageFix" stdDeviation="5.36289"/>
<feComposite in2="SourceAlpha" operator="in" result="effect1_backgroundBlur_4_744"/>
<feBlend mode="normal" in="SourceGraphic" in2="effect1_backgroundBlur_4_744" result="shape"/>
</filter>
<filter id="filter12_b_4_744" x="496.841" y="562.841" width="507.357" height="592.145" filterUnits="userSpaceOnUse" color-interpolation-filters="sRGB">
<feFlood flood-opacity="0" result="BackgroundImageFix"/>
<feGaussianBlur in="BackgroundImageFix" stdDeviation="15"/>
<feComposite in2="SourceAlpha" operator="in" result="effect1_backgroundBlur_4_744"/>
<feBlend mode="normal" in="SourceGraphic" in2="effect1_backgroundBlur_4_744" result="shape"/>
</filter>
<linearGradient id="paint0_linear_4_744" x1="641.128" y1="458.006" x2="641.128" y2="529.416" gradientUnits="userSpaceOnUse">
<stop stop-color="#EC6E94"/>
<stop offset="1" stop-color="#1F0264"/>
</linearGradient>
<linearGradient id="paint1_linear_4_744" x1="373.704" y1="1051" x2="373.704" y2="1122.41" gradientUnits="userSpaceOnUse">
<stop stop-color="#1F0264"/>
<stop offset="1" stop-color="#7940F4"/>
</linearGradient>
<linearGradient id="paint2_linear_4_744" x1="586.044" y1="817.462" x2="586.044" y2="860.627" gradientUnits="userSpaceOnUse">
<stop stop-color="#EC6E94"/>
<stop offset="1" stop-color="#1F0264"/>
</linearGradient>
<linearGradient id="paint3_linear_4_744" x1="475.14" y1="593.615" x2="475.14" y2="642.664" gradientUnits="userSpaceOnUse">
<stop stop-color="#7940F4"/>
<stop offset="1" stop-color="#1F0264"/>
</linearGradient>
<linearGradient id="paint4_linear_4_744" x1="930.923" y1="381.217" x2="930.923" y2="415.39" gradientUnits="userSpaceOnUse">
<stop stop-color="#EC6E94"/>
<stop offset="1" stop-color="#AD2F55"/>
</linearGradient>
<linearGradient id="paint5_linear_4_744" x1="779" y1="543" x2="1237" y2="896" gradientUnits="userSpaceOnUse">
<stop stop-color="#EC6E94"/>
<stop offset="1" stop-color="#7940F4"/>
</linearGradient>
<linearGradient id="paint6_linear_4_744" x1="1620.68" y1="772.271" x2="1675.76" y2="751.154" gradientUnits="userSpaceOnUse">
<stop stop-color="#EC6E94"/>
<stop offset="1" stop-color="#7940F4"/>
</linearGradient>
<linearGradient id="paint7_linear_4_744" x1="771" y1="1111" x2="897.5" y2="1062.5" gradientUnits="userSpaceOnUse">
<stop stop-color="#EC6E94"/>
<stop offset="1" stop-color="#7940F4"/>
</linearGradient>
<linearGradient id="paint8_linear_4_744" x1="1505" y1="1118" x2="1631.5" y2="1069.5" gradientUnits="userSpaceOnUse">
<stop stop-color="#EC6E94"/>
<stop offset="1" stop-color="#7940F4"/>
</linearGradient>
<linearGradient id="paint9_linear_4_744" x1="1137.5" y1="441" x2="1249" y2="1277.5" gradientUnits="userSpaceOnUse">
<stop stop-color="#7940F4"/>
<stop offset="1" stop-color="#EC6E94"/>
</linearGradient>
<linearGradient id="paint10_linear_4_744" x1="1113.68" y1="476.272" x2="1168.76" y2="455.154" gradientUnits="userSpaceOnUse">
<stop stop-color="#EC6E94"/>
<stop offset="1" stop-color="#7940F4"/>
</linearGradient>
<linearGradient id="paint11_linear_4_744" x1="1129.68" y1="1264.27" x2="1184.76" y2="1243.15" gradientUnits="userSpaceOnUse">
<stop stop-color="#EC6E94"/>
<stop offset="1" stop-color="#7940F4"/>
</linearGradient>
<linearGradient id="paint12_linear_4_744" x1="794.657" y1="412.939" x2="1162.81" y2="690.053" gradientUnits="userSpaceOnUse">
<stop stop-color="#4A0064"/>
<stop offset="1" stop-color="#FEB6FF"/>
</linearGradient>
<linearGradient id="paint13_linear_4_744" x1="926.399" y1="392.385" x2="1034.95" y2="703.68" gradientUnits="userSpaceOnUse">
<stop stop-color="#B24AB3"/>
<stop offset="1" stop-color="#FEB6FF"/>
</linearGradient>
<linearGradient id="paint14_linear_4_744" x1="1114.96" y1="812.717" x2="1305.26" y2="1202.7" gradientUnits="userSpaceOnUse">
<stop stop-color="#FEB6FF"/>
<stop offset="1" stop-color="#4A0064"/>
</linearGradient>
<linearGradient id="paint15_linear_4_744" x1="1234.28" y1="851.837" x2="1192.16" y2="1159.43" gradientUnits="userSpaceOnUse">
<stop stop-color="#FEB6FF"/>
<stop offset="1" stop-color="#B24AB3"/>
</linearGradient>
<linearGradient id="paint16_linear_4_744" x1="349.372" y1="315.48" x2="488.342" y2="436.299" gradientUnits="userSpaceOnUse">
<stop stop-color="#4A0064"/>
<stop offset="1" stop-color="#FEB6FF"/>
</linearGradient>
<linearGradient id="paint17_linear_4_744" x1="402.468" y1="310.991" x2="436.988" y2="438.136" gradientUnits="userSpaceOnUse">
<stop stop-color="#B24AB3"/>
<stop offset="1" stop-color="#FEB6FF"/>
</linearGradient>
<linearGradient id="paint18_linear_4_744" x1="756.221" y1="602.493" x2="779.45" y2="1117.03" gradientUnits="userSpaceOnUse">
<stop stop-color="#4A0064"/>
<stop offset="1" stop-color="#FEB6FF"/>
</linearGradient>
<linearGradient id="paint19_linear_4_744" x1="867.708" y1="701.401" x2="676.693" y2="1016.53" gradientUnits="userSpaceOnUse">
<stop stop-color="#B24AB3"/>
<stop offset="1" stop-color="#FEB6FF"/>
</linearGradient>
<clipPath id="clip0_4_744">
<rect width="630.709" height="761.89" fill="white" transform="translate(324 374.518)"/>
</clipPath>
<clipPath id="clip1_4_744">
<rect width="1017.1" height="925.793" fill="white" transform="translate(682 380)"/>
</clipPath>
</defs>
</svg>


