<svg width="1102" height="1056" viewBox="0 0 1102 1056" fill="none" xmlns="http://www.w3.org/2000/svg">
<g opacity="0.3" filter="url(#filter0_f_6_871)">
<circle cx="528" cy="528" r="274" fill="#EC6E94"/>
</g>
<g opacity="0.5" filter="url(#filter1_f_6_871)">
<circle cx="800" cy="496" r="138" fill="#7940F4"/>
</g>
<g filter="url(#filter2_b_6_871)">
<path d="M683.317 300.674L767.611 277.788L819.998 307.803L856.981 444.019C858.242 448.663 855.499 453.449 850.855 454.71L733.769 486.499C729.125 487.76 724.338 485.017 723.077 480.374L677.192 311.365C675.931 306.721 678.673 301.934 683.317 300.674Z" fill="#D9D9D9" fill-opacity="0.2"/>
<path d="M767.611 277.788L683.317 300.674C678.673 301.934 675.931 306.721 677.192 311.365L723.077 480.374C724.338 485.017 729.125 487.76 733.769 486.499L850.855 454.71C855.499 453.449 858.242 448.663 856.981 444.019L819.998 307.803M767.611 277.788L819.998 307.803M767.611 277.788L776.514 310.581C777.775 315.224 782.562 317.967 787.206 316.706L819.998 307.803" stroke="url(#paint0_linear_6_871)" stroke-width="1.74256"/>
</g>
<path fill-rule="evenodd" clip-rule="evenodd" d="M718.965 308.939L694.161 315.673C692.535 316.115 691.575 317.79 692.017 319.415L696.729 336.772L702.421 331.41C704.744 329.221 708.021 328.366 711.118 329.141L715.934 330.347C718.486 330.986 721.19 330.338 723.176 328.613L726.648 325.597L722.707 311.083C722.266 309.457 720.591 308.498 718.965 308.939ZM700.463 350.526L697.117 338.202L703.317 332.361C705.316 330.478 708.136 329.742 710.8 330.409L715.617 331.615C718.583 332.357 721.725 331.605 724.033 329.6L727.028 326.998L731.154 342.194C731.595 343.819 730.635 345.494 729.01 345.936L704.205 352.67C702.58 353.111 700.905 352.152 700.463 350.526ZM732.415 341.851L728.124 326.046L728.166 326.01L728.091 325.923L723.969 310.74C723.338 308.418 720.945 307.047 718.623 307.678L693.818 314.412C691.496 315.042 690.125 317.436 690.755 319.758L699.202 350.869C699.832 353.191 702.226 354.562 704.548 353.931L729.352 347.197C731.674 346.567 733.046 344.173 732.415 341.851ZM740.624 363.773L705.309 373.361L704.966 372.1L740.282 362.512L740.624 363.773ZM822.985 360.371L710.103 391.019L709.76 389.757L822.643 359.11L822.985 360.371ZM712.5 399.848L825.382 369.2L825.04 367.939L712.157 398.586L712.5 399.848ZM827.779 378.029L714.897 408.676L714.554 407.415L827.437 376.768L827.779 378.029ZM717.294 417.505L830.177 386.858L829.834 385.596L716.951 416.244L717.294 417.505ZM832.574 395.686L719.691 426.334L719.348 425.073L832.231 394.425L832.574 395.686ZM722.088 435.163L834.971 404.515L834.628 403.254L721.745 433.902L722.088 435.163ZM726.882 452.82L762.197 443.232L761.855 441.971L726.539 451.559L726.882 452.82ZM764.594 452.061L729.279 461.649L728.936 460.388L764.252 450.8L764.594 452.061ZM731.676 470.478L766.991 460.89L766.649 459.629L731.333 469.217L731.676 470.478Z" fill="url(#paint1_linear_6_871)" fill-opacity="0.7"/>
<defs>
<filter id="filter0_f_6_871" x="0" y="0" width="1056" height="1056" filterUnits="userSpaceOnUse" color-interpolation-filters="sRGB">
<feFlood flood-opacity="0" result="BackgroundImageFix"/>
<feBlend mode="normal" in="SourceGraphic" in2="BackgroundImageFix" result="shape"/>
<feGaussianBlur stdDeviation="127" result="effect1_foregroundBlur_6_871"/>
</filter>
<filter id="filter1_f_6_871" x="498" y="194" width="604" height="604" filterUnits="userSpaceOnUse" color-interpolation-filters="sRGB">
<feFlood flood-opacity="0" result="BackgroundImageFix"/>
<feBlend mode="normal" in="SourceGraphic" in2="BackgroundImageFix" result="shape"/>
<feGaussianBlur stdDeviation="82" result="effect1_foregroundBlur_6_871"/>
</filter>
<filter id="filter2_b_6_871" x="662.944" y="263.783" width="208.284" height="236.963" filterUnits="userSpaceOnUse" color-interpolation-filters="sRGB">
<feFlood flood-opacity="0" result="BackgroundImageFix"/>
<feGaussianBlur in="BackgroundImageFix" stdDeviation="6.53459"/>
<feComposite in2="SourceAlpha" operator="in" result="effect1_backgroundBlur_6_871"/>
<feBlend mode="normal" in="SourceGraphic" in2="effect1_backgroundBlur_6_871" result="shape"/>
</filter>
<linearGradient id="paint0_linear_6_871" x1="681.401" y1="305.689" x2="850.734" y2="452.904" gradientUnits="userSpaceOnUse">
<stop stop-color="#4A0064"/>
<stop offset="1" stop-color="#FEB6FF"/>
</linearGradient>
<linearGradient id="paint1_linear_6_871" x1="746.097" y1="300.218" x2="788.159" y2="455.143" gradientUnits="userSpaceOnUse">
<stop stop-color="#B24AB3"/>
<stop offset="1" stop-color="#FEB6FF"/>
</linearGradient>
</defs>
</svg>
