<svg width="436" height="41" viewBox="0 0 436 41" fill="none" xmlns="http://www.w3.org/2000/svg">
<g clip-path="url(#clip0_29_267)">
<g style="mix-blend-mode:overlay" opacity="0.3">
<path d="M42.1839 7.57035L46.0393 11.0417L50.5321 8.44779L48.422 13.1872L52.2774 16.6586L47.1179 16.1163L45.0078 20.8557L43.9292 15.7811L38.7697 15.2389L43.2625 12.6449L42.1839 7.57035Z" fill="black"/>
<path d="M316.775 7.07361L312.943 9.56174L314.126 13.9745L310.575 11.0995L306.744 13.5876L308.381 9.32265L304.831 6.44766L309.393 6.68675L311.03 2.42178L312.212 6.83452L316.775 7.07361Z" fill="black"/>
<path d="M106.208 31.4299L105.233 36.0191L109.296 38.3649L104.63 38.8553L103.654 43.4445L101.746 39.1584L97.0802 39.6488L100.567 36.5095L98.6585 32.2234L102.722 34.5693L106.208 31.4299Z" fill="black"/>
<path d="M379.179 24.9422L378.271 29.3642L382.196 31.5941L377.71 32.0972L376.802 36.5192L374.937 32.4081L370.451 32.9111L373.785 29.8673L371.92 25.7562L375.845 27.9861L379.179 24.9422Z" fill="black"/>
<path d="M157.475 -1.36376L160.527 3.33556L165.939 1.88532L162.413 6.2399L165.465 10.9392L160.234 8.93118L156.707 13.2858L157.001 7.69014L151.769 5.6821L157.182 4.23186L157.475 -1.36376Z" fill="black"/>
<path d="M417.5 -4L419.408 1.87336L425.584 1.87336L420.588 5.50329L422.496 11.3766L417.5 7.74671L412.504 11.3766L414.412 5.50329L409.416 1.87336L415.592 1.87336L417.5 -4Z" fill="black"/>
<path d="M211.216 30.7921L210.543 38.3569L217.265 41.112L210.126 43.0322L209.452 50.597L205.714 44.2189L198.575 46.1391L203.403 40.2771L199.665 33.899L206.388 36.6541L211.216 30.7921Z" fill="black"/>
<path d="M207.288 6.28754L204.39 11.9749L208.903 16.4884L202.599 15.4899L199.701 21.1773L198.702 14.8728L192.398 13.8742L198.085 10.9764L197.087 4.67187L201.6 9.1854L207.288 6.28754Z" fill="black"/>
<path d="M252.634 5.12965L256.44 10.9906L263.19 9.18186L258.792 14.6128L262.598 20.4738L256.074 17.9694L251.676 23.4003L252.042 16.4216L245.518 13.9172L252.268 12.1084L252.634 5.12965Z" fill="black"/>
<path d="M283 28L285.245 34.9098H292.511L286.633 39.1803L288.878 46.0902L283 41.8197L277.122 46.0902L279.367 39.1803L273.489 34.9098H280.755L283 28Z" fill="black"/>
<path d="M143 28L145.245 34.9098H152.51L146.633 39.1803L148.878 46.0902L143 41.8197L137.122 46.0902L139.367 39.1803L133.489 34.9098H140.755L143 28Z" fill="black"/>
<path d="M413.5 27L415.857 34.2553H423.486L417.314 38.7394L419.672 45.9947L413.5 41.5106L407.328 45.9947L409.685 38.7394L403.514 34.2553H411.142L413.5 27Z" fill="black"/>
<path d="M88.6456 -7.60477L92.8865 -1.26348L100.228 -3.33723L95.5075 2.65565L99.7484 8.99694L92.5901 6.35946L87.8697 12.3523L88.1661 4.72941L81.0078 2.09193L88.3493 0.018171L88.6456 -7.60477Z" fill="black"/>
<path d="M360.012 -7.70077L364.021 -1.21061L371.433 -3.01816L366.499 2.80052L370.509 9.29068L363.45 6.39667L358.517 12.2154L359.088 4.60807L352.029 1.71406L359.441 -0.0934868L360.012 -7.70077Z" fill="black"/>
<path d="M58.4999 31L60.8573 38.2553H68.486L62.3142 42.7394L64.6716 49.9947L58.4999 45.5106L52.3281 49.9947L54.6855 42.7394L48.5138 38.2553H56.1425L58.4999 31Z" fill="black"/>
<path d="M329.5 31L331.857 38.2553H339.486L333.314 42.7394L335.672 49.9947L329.5 45.5106L323.328 49.9947L325.685 42.7394L319.514 38.2553H327.142L329.5 31Z" fill="black"/>
</g>
<g style="mix-blend-mode:soft-light" opacity="0.7">
<path d="M59.5189 -5.99508L63.3742 -2.52369L67.8671 -5.11764L65.757 -0.378251L69.6123 3.09314L64.4529 2.55086L62.3427 7.29025L61.2641 2.2157L56.1046 1.67342L60.5975 -0.920535L59.5189 -5.99508Z" fill="white"/>
<path d="M26.1839 28.0293L30.0393 31.5007L34.5321 28.9068L32.422 33.6462L36.2774 37.1176L31.1179 36.5753L29.0078 41.3147L27.9292 36.2401L22.7697 35.6978L27.2625 33.1039L26.1839 28.0293Z" fill="white"/>
<path d="M335.573 -2.66858L331.742 -0.180446L332.924 4.23229L329.374 1.3573L325.543 3.84543L327.18 -0.419537L323.63 -3.29453L328.192 -3.05543L329.829 -7.3204L331.011 -2.90767L335.573 -2.66858Z" fill="white"/>
<path d="M125.208 7.88892L124.233 12.4781L128.296 14.8239L123.63 15.3143L122.654 19.9035L120.746 15.6174L116.08 16.1078L119.567 12.9685L117.659 8.68243L121.722 11.0283L125.208 7.88892Z" fill="white"/>
<path d="M397.179 11.4012L396.271 15.8232L400.196 18.0531L395.71 18.5562L394.802 22.9781L392.937 18.867L388.451 19.3701L391.785 16.3263L389.92 12.2152L393.845 14.4451L397.179 11.4012Z" fill="white"/>
<path d="M175.475 -14.9048L178.527 -10.2055L183.939 -11.6557L180.413 -7.30112L183.465 -2.6018L178.233 -4.60984L174.707 -0.255259L175 -5.85088L169.769 -7.85892L175.182 -9.30916L175.475 -14.9048Z" fill="white"/>
<path d="M239.481 17.2434L238.911 24.8508L245.97 27.7436L238.559 29.5524L237.989 37.1598L233.979 30.6703L226.568 32.479L231.5 26.6595L227.49 20.17L234.549 23.0629L239.481 17.2434Z" fill="white"/>
<path d="M225.288 -7.25348L222.39 -1.5661L226.903 2.94743L220.599 1.94889L217.701 7.63627L216.702 1.33176L210.398 0.333228L216.085 -2.56464L215.087 -8.86914L219.6 -4.35561L225.288 -7.25348Z" fill="white"/>
<path d="M270.634 -8.41137L274.44 -2.55043L281.19 -4.35915L276.792 1.07182L280.598 6.93275L274.074 4.42835L269.676 9.85933L270.042 2.88054L263.518 0.376138L270.268 -1.43258L270.634 -8.41137Z" fill="white"/>
<path d="M301 14.459L303.245 21.3688H310.511L304.633 25.6393L306.878 32.5492L301 28.2786L295.122 32.5492L297.367 25.6393L291.489 21.3688H298.755L301 14.459Z" fill="white"/>
<path d="M161 14.459L163.245 21.3688H170.51L164.633 25.6393L166.878 32.5492L161 28.2786L155.122 32.5492L157.367 25.6393L151.489 21.3688H158.755L161 14.459Z" fill="white"/>
<path d="M431.5 13.459L433.857 20.7143H441.486L435.314 25.1983L437.672 32.4537L431.5 27.9696L425.328 32.4537L427.685 25.1983L421.514 20.7143H429.142L431.5 13.459Z" fill="white"/>
<path d="M79.4999 16.459L81.8573 23.7143H89.486L83.3142 28.1983L85.6716 35.4537L79.4999 30.9696L73.3281 35.4537L75.6855 28.1983L69.5138 23.7143H77.1425L79.4999 16.459Z" fill="white"/>
<path d="M347.5 10.459L349.857 17.7143H357.486L351.314 22.1983L353.672 29.4537L347.5 24.9696L341.328 29.4537L343.686 22.1983L337.514 17.7143H345.143L347.5 10.459Z" fill="white"/>
</g>
</g>
<defs>
<clipPath id="clip0_29_267">
<rect width="436" height="41" fill="white"/>
</clipPath>
</defs>
</svg>
